<?xml version="1.0" encoding="UTF-8"?>
<svg version="1.1" xmlns="http://www.w3.org/2000/svg" width="1008" height="337">
<path d="M0 0 C3.04107246 1.37614855 5.95260368 2.95196392 8.875 4.5625 C10.57609421 5.47921808 12.27792905 6.39456304 13.98046875 7.30859375 C14.82657715 7.76476074 15.67268555 8.22092773 16.54443359 8.69091797 C20.06112012 10.56569159 23.61709557 12.35518169 27.1875 14.125 C28.15997681 14.60755249 28.15997681 14.60755249 29.15209961 15.09985352 C30.45209304 15.74441805 31.75230314 16.38854578 33.05273438 17.03222656 C35.02328846 18.01157415 36.98882502 19.00036116 38.953125 19.9921875 C46.54965063 23.8235273 54.19240779 27.5297331 61.90136719 31.12963867 C67.98980869 33.97802822 74.00411765 36.96172778 80 40 C81.07894531 40.52980469 82.15789062 41.05960938 83.26953125 41.60546875 C86 43 86 43 87 44 C87.12979968 46.09253052 87.18868058 48.18946629 87.22119141 50.2857666 C87.23262932 50.94997352 87.24406723 51.61418044 87.25585175 52.29851484 C87.29283853 54.5407582 87.32232304 56.78303371 87.3515625 59.02539062 C87.37581954 60.62668194 87.40031026 62.22796973 87.42501831 63.82925415 C87.64185717 78.47352924 87.76286525 93.1191475 87.85931396 107.76465607 C87.92560765 117.61334459 88.02017912 127.46006402 88.18652344 137.30761719 C88.33159106 145.8959533 88.42375996 154.48292383 88.45199776 163.07246923 C88.46866577 167.61885303 88.51111744 172.16159861 88.61651611 176.7068634 C88.71482644 180.98952198 88.74166032 185.26684125 88.7149086 189.55048752 C88.71742848 191.11760287 88.74544946 192.68492817 88.80154037 194.25104141 C88.96750672 199.13491122 88.833961 203.38560673 87 208 C83.30777133 211.78512256 78.58110947 214.02728024 73.8119812 216.17289639 C71.33293569 217.30449063 68.98788636 218.64553802 66.625 220 C64.75164508 221.00307843 62.87640199 222.00263318 61 223 C59.56100889 223.77699378 58.12222338 224.55436838 56.68359375 225.33203125 C55.14344776 226.15926128 53.60308286 226.98608385 52.0625 227.8125 C51.32789551 228.21017578 50.59329102 228.60785156 49.83642578 229.01757812 C49.13888184 229.38947266 48.44133789 229.76136719 47.72265625 230.14453125 C47.10140869 230.47815674 46.48016113 230.81178223 45.84008789 231.15551758 C44 232 44 232 40 233 C39.67 180.2 39.34 127.4 39 73 C33.72 70.36 28.44 67.72 23 65 C17.79947917 62.39973958 12.59895833 59.79947917 7.3984375 57.19921875 C6.63499023 56.82458496 5.87154297 56.44995117 5.08496094 56.06396484 C3.2965856 55.15134895 1.56622983 54.12657425 -0.1484375 53.08203125 C-4.17417717 51.55445606 -6.03428658 52.41035029 -10 54 C-13.03729975 55.4404867 -15.98798559 57.01344713 -18.9375 58.625 C-20.61122861 59.52353491 -22.28572228 60.42064601 -23.9609375 61.31640625 C-24.79850586 61.76516113 -25.63607422 62.21391602 -26.49902344 62.67626953 C-30.3228711 64.7001764 -34.18773442 66.63829972 -38.0625 68.5625 C-39.07074829 69.06354248 -39.07074829 69.06354248 -40.09936523 69.57470703 C-41.73217511 70.38462159 -43.36600058 71.19248803 -45 72 C-45.99 72.495 -45.99 72.495 -47 73 C-47.33 125.8 -47.66 178.6 -48 233 C-51.87286158 232.03178461 -54.59663841 230.74827314 -58.09375 228.8671875 C-58.68111938 228.55226349 -59.26848877 228.23733948 -59.87365723 227.91287231 C-61.11872581 227.24414734 -62.36263945 226.57326818 -63.60546875 225.90039062 C-65.46350938 224.89475008 -67.32511392 223.89600281 -69.1875 222.8984375 C-76.08021813 219.19334897 -82.87480513 215.36923194 -89.59179688 211.35205078 C-92.0228922 209.88754045 -92.0228922 209.88754045 -95 209 C-95.14007959 187.55585074 -95.24592662 166.11177678 -95.31087303 144.66726303 C-95.34182859 134.71047433 -95.38404152 124.75396968 -95.45263672 114.79736328 C-95.51238678 106.12050416 -95.55113678 97.44385071 -95.56453097 88.76679158 C-95.57236225 84.17101794 -95.59080228 79.57583276 -95.63438034 74.9802475 C-95.67505231 70.6561684 -95.68768027 66.33292111 -95.67864609 62.0086689 C-95.68029919 60.4203216 -95.69226715 58.831947 -95.71523285 57.24376488 C-95.74503969 55.07650223 -95.73793419 52.91238985 -95.7215271 50.74505615 C-95.72705786 49.53197659 -95.73258862 48.31889702 -95.73828697 47.06905746 C-95 44 -95 44 -92.1204319 41.6536293 C-89.31537897 40.16713068 -86.58618813 38.88696049 -83.625 37.75 C-76.56368336 34.89932032 -69.83966832 31.49671622 -63.06005859 28.04394531 C-61.05176452 27.02623194 -59.03733995 26.02213581 -57.01953125 25.0234375 C-49.40834607 21.25449136 -41.87334672 17.36673369 -34.37988281 13.36889648 C-26.98976968 9.43789463 -19.50138871 5.7128934 -12 2 C-10.98292969 1.40960938 -9.96585937 0.81921875 -8.91796875 0.2109375 C-5.25055521 -1.31101457 -3.79006518 -1.15936883 0 0 Z " fill="#FFFFFF" transform="translate(149,79)"/>
<path d="M0 0 C2.64 0 5.28 0 8 0 C8 0.66 8 1.32 8 2 C8.84046875 2.25523438 9.6809375 2.51046875 10.546875 2.7734375 C14.28819842 4.10236912 17.73562008 5.80070813 21.25 7.625 C27.02716477 10.57581457 32.85931416 13.29939718 38.8125 15.875 C47.67615686 19.73771254 56.18126845 24.17354141 64.69042969 28.75634766 C79.81379277 36.89994296 95.05344303 44.72648833 110.62036133 51.98925781 C118.15328226 55.51475164 125.57656541 59.25087458 133 63 C134.98 63.99 136.96 64.98 139 66 C139 83.16 139 100.32 139 118 C134.41773926 117.23628988 132.13562651 116.81734454 128.26953125 114.84765625 C127.39554687 114.40679687 126.5215625 113.9659375 125.62109375 113.51171875 C124.69425781 113.03347656 123.76742187 112.55523437 122.8125 112.0625 C121.82765625 111.56234375 120.8428125 111.0621875 119.828125 110.546875 C113.28860178 107.21382768 106.80065887 103.78738975 100.32055664 100.34082031 C91.20130071 95.52548191 81.97138877 90.92806499 72.75 86.3125 C71.93684326 85.90467285 71.12368652 85.4968457 70.28588867 85.07666016 C61.63333597 80.73947539 52.96053188 76.47031943 44.17466736 72.40927124 C38.66496004 69.85944881 33.23327184 67.17006747 27.8125 64.4375 C26.87124268 63.97005371 25.92998535 63.50260742 24.96020508 63.02099609 C21.00113981 61.049839 17.06625024 59.07923276 13.2421875 56.85546875 C12.23414063 56.28441406 11.22609375 55.71335938 10.1875 55.125 C9.37667969 54.63257813 8.56585938 54.14015625 7.73046875 53.6328125 C0.07562976 51.85872964 -8.46343242 58.17637359 -14.9375 61.6875 C-21.98700209 65.4449377 -29.034223 69.03424527 -36.375 72.1875 C-43.74448238 75.36061974 -50.78898274 78.96888978 -57.84765625 82.77734375 C-61.88108108 84.95122098 -65.95960109 87.02331968 -70.0625 89.0625 C-70.72967041 89.39443359 -71.39684082 89.72636719 -72.08422852 90.06835938 C-75.21049693 91.62104863 -78.33963265 93.16790398 -81.46875 94.71484375 C-82.66685507 95.3095164 -83.8647662 95.90457993 -85.0625 96.5 C-85.98373657 96.95656982 -85.98373657 96.95656982 -86.92358398 97.42236328 C-91.18343608 99.54897764 -95.41150958 101.73209666 -99.62736511 103.94430542 C-102.41911665 105.40918607 -105.21382108 106.86839865 -108.00827026 108.328125 C-109.41136098 109.06348282 -110.81285553 109.80189481 -112.212677 110.54345703 C-114.20303693 111.59769482 -116.19858941 112.64147012 -118.1953125 113.68359375 C-119.36078613 114.29775146 -120.52625977 114.91190918 -121.72705078 115.54467773 C-125 117 -125 117 -131 118 C-131 100.84 -131 83.68 -131 66 C-123.41 62.37 -115.82 58.74 -108 55 C-99.45982454 50.79270768 -91.00457732 46.50213896 -82.625 41.99047852 C-77.64509096 39.31831639 -72.60544185 36.78378059 -67.53857422 34.28125 C-62.51477799 31.7879319 -57.55172566 29.19032849 -52.59399414 26.56835938 C-43.97238006 22.01402595 -35.34202564 17.67192078 -26.38671875 13.81225586 C-20.51354713 11.27288615 -14.80305923 8.46994089 -9.12329102 5.52441406 C-6.12500172 3.98465654 -3.33655063 2.59521381 0 2 C0 1.34 0 0.68 0 0 Z " fill="#009CFF" transform="translate(141,3)"/>
<path d="M0 0 C9.57 0 19.14 0 29 0 C37.04176206 22.6137871 44.8424557 45.30333347 52.52262115 68.04244995 C58.30522941 85.16255516 64.14372396 102.26061484 70.125 119.3125 C74.2317709 131.02934489 78.32331317 142.74996056 82.27313232 154.52084351 C82.91593723 156.43576435 83.56263784 158.3493761 84.20947266 160.26293945 C84.76900635 161.94262817 84.76900635 161.94262817 85.33984375 163.65625 C85.66331787 164.62369141 85.98679199 165.59113281 86.32006836 166.58789062 C87 169 87 169 87 172 C78.75 172 70.5 172 62 172 C56.06 154.51 50.12 137.02 44 119 C14.3 118.505 14.3 118.505 -16 118 C-16.66 120.97 -17.32 123.94 -18 127 C-18.50140217 128.72753367 -19.03079496 130.44753416 -19.60400391 132.15258789 C-19.90416412 133.05284195 -20.20432434 133.95309601 -20.51358032 134.88063049 C-20.83136444 135.81849899 -21.14914856 136.75636749 -21.4765625 137.72265625 C-21.97172867 139.20178749 -21.97172867 139.20178749 -22.47689819 140.71080017 C-23.5220116 143.82948033 -24.57339618 146.94600316 -25.625 150.0625 C-26.33895875 152.18931316 -27.05250454 154.31626499 -27.765625 156.44335938 C-29.50488277 161.6307968 -31.25262276 166.81526388 -33 172 C-41.25 172 -49.5 172 -58 172 C-57.29617188 169.88851562 -56.59234375 167.77703125 -55.8671875 165.6015625 C-55.6210672 164.86315628 -55.3749469 164.12475006 -55.12136841 163.3639679 C-53.82974212 159.48888483 -52.53785385 155.61388933 -51.24560547 151.73901367 C-48.63695857 143.91605576 -46.02973805 136.09263914 -43.43070984 128.26647949 C-36.0131665 105.93114471 -28.48882547 83.63530413 -20.86268616 61.37037659 C-16.78571268 49.46158236 -12.7380684 37.54279477 -8.6875 25.625 C-7.93188882 23.40234237 -7.17627369 21.17968609 -6.4206543 18.95703125 C-5.7218168 16.90105038 -5.02300372 14.84506122 -4.32421875 12.7890625 C-4.00199341 11.84108795 -3.67976807 10.8931134 -3.34777832 9.91641235 C-3.05213989 9.04632538 -2.75650146 8.1762384 -2.4519043 7.27978516 C-2.1943486 6.52186676 -1.93679291 5.76394836 -1.6714325 4.98306274 C-1.10957579 3.32362997 -0.55402167 1.66206501 0 0 Z M14 23 C11.48714632 29.38462219 9.56424942 35.84180853 7.6875 42.4375 C3.4670396 57.02352793 -1.46552733 71.35334255 -6.42700195 85.70092773 C-6.8798632 87.01151909 -6.8798632 87.01151909 -7.34187317 88.34858704 C-7.91609703 90.00812768 -8.49203144 91.66707766 -9.06987 93.32536316 C-10.40975559 96.59089399 -10.40975559 96.59089399 -11 100 C5.5 100 22 100 39 100 C37.19989241 93.39960549 35.42235673 87.01105236 33.14453125 80.59765625 C32.60207989 79.04456549 32.06002145 77.49133746 31.51831055 75.93798828 C31.23933929 75.1413678 30.96036804 74.34474731 30.67294312 73.52398682 C24.8374732 56.83034139 19.58542836 40.08246959 15 23 C14.67 23 14.34 23 14 23 Z " fill="#FFFFFF" transform="translate(341,109)"/>
<path d="M0 0 C7.46594427 3.27431344 14.58717154 6.90296077 21.9140625 10.56640625 C21.9140625 63.03640625 21.9140625 115.50640625 21.9140625 169.56640625 C7.9140625 177.56640625 7.9140625 177.56640625 3.9140625 178.56640625 C3.9140625 179.22640625 3.9140625 179.88640625 3.9140625 180.56640625 C0.6140625 180.56640625 -2.6859375 180.56640625 -6.0859375 180.56640625 C-6.0859375 179.90640625 -6.0859375 179.24640625 -6.0859375 178.56640625 C-7.37564453 178.18162109 -7.37564453 178.18162109 -8.69140625 177.7890625 C-12.21839723 176.51869636 -15.18232445 174.92235974 -18.3984375 173.00390625 C-19.44644531 172.38386719 -20.49445313 171.76382813 -21.57421875 171.125 C-24.0859375 169.56640625 -24.0859375 169.56640625 -25.0859375 168.56640625 C-25.18270164 166.54146003 -25.20780736 164.51308083 -25.20619202 162.48582458 C-25.20704644 161.84385244 -25.20790087 161.20188029 -25.20878118 160.54045445 C-25.21043771 158.37386571 -25.20491183 156.20735318 -25.19946289 154.04077148 C-25.19918103 152.49384564 -25.19933873 150.94691966 -25.1999054 149.3999939 C-25.20019342 145.18736593 -25.19429599 140.97476619 -25.18733144 136.7621448 C-25.18109862 132.36454837 -25.18049416 127.96695136 -25.17930603 123.5693512 C-25.1761925 115.23600112 -25.16797882 106.9026641 -25.15795654 98.56931978 C-25.14679607 89.08459371 -25.14128512 79.59986703 -25.13626111 70.11513603 C-25.12579623 50.59888536 -25.10819637 31.08264685 -25.0859375 11.56640625 C-22.00296338 9.94072408 -18.91949561 8.31598041 -15.8359375 6.69140625 C-14.96324219 6.23121094 -14.09054688 5.77101562 -13.19140625 5.296875 C-12.34707031 4.85214844 -11.50273437 4.40742188 -10.6328125 3.94921875 C-9.85776367 3.54074707 -9.08271484 3.13227539 -8.28417969 2.71142578 C-7.55875977 2.33356934 -6.83333984 1.95571289 -6.0859375 1.56640625 C-5.37518066 1.17831787 -4.66442383 0.79022949 -3.93212891 0.39038086 C-2.0859375 -0.43359375 -2.0859375 -0.43359375 0 0 Z " fill="#FFFFFF" transform="translate(146.0859375,153.43359375)"/>
<path d="M0 0 C7.59 0 15.18 0 23 0 C23.33 36.96 23.66 73.92 24 112 C29.93851176 104.98175882 35.83257689 97.98847321 41.6328125 90.8671875 C46.88366544 84.5072435 52.29868471 78.28398913 57.69042969 72.04345703 C58.81677898 70.7396868 59.9423663 69.43525785 61.06713867 68.13012695 C62.12797662 66.89922247 63.19057386 65.6698315 64.25512695 64.44213867 C66.90656654 61.41471593 66.90656654 61.41471593 69 58 C78.57 58 88.14 58 98 58 C96.39273353 61.21453294 95.62096151 62.62221455 93.20703125 64.953125 C92.66264404 65.48591064 92.11825684 66.01869629 91.55737305 66.56762695 C90.98156494 67.12281006 90.40575684 67.67799316 89.8125 68.25 C85.55614996 72.42256133 81.46565611 76.62933836 77.60546875 81.17578125 C75.19218534 83.91788186 72.5705291 86.43824828 69.96875 89 C67.4526159 91.55607273 65.13618445 94.25680757 62.8046875 96.98046875 C60.2128005 99.88091373 57.41818425 102.55759685 54.6015625 105.23828125 C52.77095443 107.01353029 52.77095443 107.01353029 52 110 C52.95881976 111.8079814 52.95881976 111.8079814 54.5078125 113.59765625 C55.0754834 114.30704346 55.6431543 115.01643066 56.22802734 115.74731445 C57.16702881 116.8933313 57.16702881 116.8933313 58.125 118.0625 C59.43494716 119.70100552 60.74217545 121.34168788 62.046875 122.984375 C62.71267578 123.82162109 63.37847656 124.65886719 64.06445312 125.52148438 C66.94379005 129.20854649 69.66470834 133.00033886 72.375 136.8125 C77.18765863 143.55736186 82.14484179 150.17541742 87.1875 156.75 C91.87103715 162.86117225 96.51943091 168.98792037 101 175.25 C101.41531982 175.8284668 101.83063965 176.40693359 102.25854492 177.00292969 C105 180.87082126 105 180.87082126 105 182 C80.80124876 184.99033998 80.80124876 184.99033998 73.44580078 180.40917969 C69.11072091 176.1263297 66.24709356 170.94484214 63.41796875 165.59082031 C61.25097705 161.63143397 58.60174476 158.07193363 55.9375 154.4375 C54.96575724 153.06070117 53.99702111 151.68177552 53.03125 150.30078125 C49.69371324 145.55604893 46.32293845 140.83564852 42.9375 136.125 C42.38892334 135.35728271 41.84034668 134.58956543 41.27514648 133.79858398 C40.76024658 133.08387939 40.24534668 132.3691748 39.71484375 131.6328125 C39.26230225 131.00262207 38.80976074 130.37243164 38.34350586 129.72314453 C37.00444229 128.00569756 35.57207612 126.50427691 34 125 C29.10103103 128.5887537 24.84413663 132.41888089 23.41394043 138.48626709 C22.55649557 145.5283514 22.74986349 152.60811766 22.875 159.6875 C22.8769445 161.85351632 22.87438082 164.01954163 22.8671875 166.18554688 C22.85103749 171.46054405 22.92756002 176.72253427 23 182 C15.41 182 7.82 182 0 182 C0 121.94 0 61.88 0 0 Z " fill="#FFFFFF" transform="translate(535,99)"/>
<path d="M0 0 C12.89075457 12.1113136 19.60714185 26.59679665 20.30859375 44.3984375 C20.33190927 46.64050415 20.33282842 48.88290428 20.3125 51.125 C20.30492676 52.30457275 20.29735352 53.48414551 20.28955078 54.69946289 C20.12119368 63.62546154 19.19292411 71.38758312 15.875 79.75 C15.47410156 80.78640625 15.07320312 81.8228125 14.66015625 82.890625 C8.14558347 97.61922432 -3.8961355 107.43157102 -18.4453125 113.71875 C-34.35019372 119.83957892 -52.55103378 118.74505826 -68.12109375 112.23046875 C-82.89092476 104.95118923 -93.20809966 92.910101 -98.5625 77.3125 C-103.6462749 60.92131544 -103.46393033 39.72648898 -97.125 23.75 C-96.72410156 22.71359375 -96.32320312 21.6771875 -95.91015625 20.609375 C-89.72781198 6.63190099 -77.96157075 -4.11335778 -64 -10.0625 C-42.37708715 -17.76137496 -17.62293632 -15.23787727 0 0 Z M-64.75 13.6875 C-75.16763192 24.57293578 -78.55436274 40.05336477 -78.33203125 54.70703125 C-77.45999116 67.52437516 -73.1774213 82.47078701 -63.1953125 91.2890625 C-54.73992717 97.2556929 -46.57930688 100.63287888 -36.22265625 99.40625 C-26.57174956 97.51829914 -18.49445585 92.55982326 -12.75 84.5 C-4.01629177 69.91850452 -1.56397335 53.25379715 -4.80859375 36.54296875 C-7.74970533 25.47413802 -13.22015789 14.91730457 -23.03125 8.50390625 C-37.08762285 0.89003763 -53.03490556 3.0089665 -64.75 13.6875 Z " fill="#FFFFFF" transform="translate(748.125,167.25)"/>
<path d="M0 0 C0.9921875 1.6796875 0.9921875 1.6796875 1 4 C0.27770097 6.66259249 -0.50218578 9.16628604 -1.4375 11.75 C-1.68048828 12.44738281 -1.92347656 13.14476562 -2.17382812 13.86328125 C-2.77310248 15.57885098 -3.38529885 17.28989715 -4 19 C-5.06347656 18.56880859 -5.06347656 18.56880859 -6.1484375 18.12890625 C-17.11175389 13.78863442 -29.41428151 9.16535808 -41 14 C-44.80187834 16.50123575 -47.54195847 18.62587541 -49 23 C-49.14285477 24.62085223 -49.22033073 26.24813517 -49.25 27.875 C-49.27578125 28.71804687 -49.3015625 29.56109375 -49.328125 30.4296875 C-48.82926815 34.33739948 -47.24824306 36.93647452 -44.2578125 39.484375 C-38.24746107 43.05095717 -32.00649105 45.71142344 -25.5625 48.375 C-13.06956096 53.58193738 -1.83193833 59.59899367 3.62890625 72.6953125 C5.2225139 77.11892988 5.50206497 81.20229797 5.4375 85.875 C5.42775146 86.66583984 5.41800293 87.45667969 5.40795898 88.27148438 C5.096179 98.56128077 1.75445125 105.26840034 -5.37109375 112.734375 C-17.03756448 122.78868856 -32.38325685 124.71914654 -47.2578125 123.7890625 C-57.3213657 122.92712459 -69.6161155 121.3838845 -77 114 C-75.02 108.39 -73.04 102.78 -71 97 C-67.26014935 98.24661688 -63.78286669 99.47360883 -60.1875 101 C-48.71463422 105.59600602 -37.65403532 106.81091849 -26 102 C-22.17537469 99.72149982 -20.03683635 97.2789322 -18.4375 93.0625 C-17.3689343 88.02497597 -18.26153361 83.03078256 -20 78.25 C-25.5530713 72.00279478 -32.85929395 69.10394512 -40.4375 66 C-53.20233542 60.7703646 -65.24117522 55.02812194 -71.30859375 41.859375 C-74.54472087 33.15656985 -73.74994782 24.02128928 -70.2578125 15.53515625 C-65.45337508 5.85167834 -57.94740731 -0.51104416 -47.8046875 -4.1796875 C-32.9750209 -8.51705517 -13.62076467 -8.34300645 0 0 Z " fill="#FFFFFF" transform="translate(864,160)"/>
<path d="M0 0 C3.6196875 0.0309375 3.6196875 0.0309375 7.3125 0.0625 C7.3125 7.3225 7.3125 14.5825 7.3125 22.0625 C5.188125 22.145 3.06375 22.2275 0.875 22.3125 C-8.34763029 22.98255992 -15.05913772 25.45222329 -21.6875 32.0625 C-23.80996652 35.06229475 -23.80996652 35.06229475 -25.4375 38.4375 C-26.00984375 39.51773438 -26.5821875 40.59796875 -27.171875 41.7109375 C-31.56059194 52.45336725 -31.00670965 65.5569642 -31.1015625 76.96484375 C-31.12033946 78.4231518 -31.1399173 79.88144972 -31.1602478 81.33973694 C-31.21088756 85.12228337 -31.25087095 88.90486477 -31.28839111 92.68756104 C-31.32886617 96.56978512 -31.37975652 100.45187244 -31.4296875 104.33398438 C-31.52563615 111.91006808 -31.6093251 119.48620822 -31.6875 127.0625 C-39.2775 127.0625 -46.8675 127.0625 -54.6875 127.0625 C-55.0175 86.1425 -55.3475 45.2225 -55.6875 3.0625 C-48.7575 3.0625 -41.8275 3.0625 -34.6875 3.0625 C-34.25 12 -34.25 12 -34.11938477 14.82006836 C-34.0622229 15.91266968 -34.0622229 15.91266968 -34.00390625 17.02734375 C-33.96724854 17.7762085 -33.93059082 18.52507324 -33.89282227 19.29663086 C-33.86978937 21.08711326 -33.86978937 21.08711326 -32.6875 22.0625 C-32.26339844 21.33804688 -31.83929688 20.61359375 -31.40234375 19.8671875 C-23.94068339 7.56774735 -14.89250065 -0.17938947 0 0 Z " fill="#FFFFFF" transform="translate(505.6875,153.9375)"/>
<path d="M0 0 C1.28261719 0.17144531 2.56523438 0.34289062 3.88671875 0.51953125 C7.3125 1.1875 7.3125 1.1875 11.3125 3.1875 C10.6525 6.1575 9.9925 9.1275 9.3125 12.1875 C4.73477955 13.57468801 1.81782236 12.50802552 -2.6875 11.1875 C-7.96836392 10.72426632 -11.14873837 11.4431325 -15.6875 14.1875 C-18.01954711 16.11392608 -18.01954711 16.11392608 -18.125 19.5 C-17.56775373 24.19678997 -16.25026108 25.17285601 -12.6875 28.1875 C-9.44893451 29.80306101 -9.44893451 29.80306101 -5.9375 31.0625 C1.24682616 33.93585338 7.87550052 37.21485702 12.0234375 43.9765625 C14.66513858 50.55679973 14.64966798 59.09448158 11.875 65.6875 C8.38667329 71.31227594 3.37115106 74.35466248 -2.9296875 76.0703125 C-12.95163797 77.83364009 -23.82921499 77.75556486 -32.6875 72.1875 C-32.2126065 68.07175629 -31.6664756 64.82366656 -29.6875 61.1875 C-29.09582031 61.39246094 -28.50414062 61.59742188 -27.89453125 61.80859375 C-16.14314931 65.8589301 -16.14314931 65.8589301 -4.3125 63.3125 C-1.4093472 61.85029486 -1.4093472 61.85029486 0.3125 59.1875 C1.06186803 53.47099445 1.06186803 53.47099445 -1.68359375 48.67578125 C-5.27630257 45.69976627 -8.86334708 44.00916224 -13.125 42.1875 C-19.72811402 39.35017939 -25.14431178 36.57841762 -29.5625 30.6875 C-31.47940633 24.72379141 -31.87689191 18.01102539 -29.99609375 11.96484375 C-27.27603817 6.78649526 -23.08199755 3.20643513 -17.75 0.9375 C-11.5682949 -0.57638696 -6.31659462 -0.88777215 0 0 Z " fill="#FFFFFF" transform="translate(984.6875,203.8125)"/>
<path d="M0 0 C3.96 0 7.92 0 12 0 C12.06799833 7.55443995 12.12294382 15.10876454 12.15543652 22.66343689 C12.17103791 26.17206264 12.19217364 29.68046666 12.22631836 33.18896484 C12.26539753 37.23016388 12.2797548 41.27113298 12.29296875 45.3125 C12.30845261 46.5617627 12.32393646 47.81102539 12.33988953 49.09814453 C12.34134368 56.67471706 12.18717711 63.25378175 7.0625 69.27734375 C6.381875 69.82519531 5.70125 70.37304688 5 70.9375 C4.319375 71.50339844 3.63875 72.06929688 2.9375 72.65234375 C-1.25183955 75.56629969 -5.61134636 75.14948408 -10.5 75.125 C-11.27214844 75.12886719 -12.04429687 75.13273437 -12.83984375 75.13671875 C-16.14503737 75.13099051 -18.84377498 75.05207501 -22 74 C-21.67 70.7 -21.34 67.4 -21 64 C-17.87478532 62.95826177 -16.81645877 63.07378447 -13.6875 63.625 C-9.26769945 64.17207629 -6.69710141 63.70519615 -3 61 C-1.16637576 57.36496988 -0.73590259 54.33414114 -0.68115234 50.29174805 C-0.66128265 49.17096359 -0.64141296 48.05017914 -0.62094116 46.89543152 C-0.60361435 45.0967437 -0.60361435 45.0967437 -0.5859375 43.26171875 C-0.56657135 42.02581497 -0.5472052 40.78991119 -0.5272522 39.51655579 C-0.47767445 36.24348033 -0.43637171 32.970439 -0.39910889 29.69720459 C-0.35897981 26.35206543 -0.30776548 23.00711627 -0.2578125 19.66210938 C-0.16183179 13.10817221 -0.07777375 6.55417749 0 0 Z " fill="#FFFFFF" transform="translate(928,205)"/>
<path d="M0 0 C2.375 1.4375 2.375 1.4375 4 4 C4.49269345 7.06687831 4.62344409 9.95017891 4 13 C2.26649712 15.17056168 1.27507371 15.90589584 -1.375 16.8125 C-4.5252038 17.03751456 -6.23334006 16.49549186 -9 15 C-11.44396979 11.33404531 -11.8316352 8.26105872 -11 4 C-7.74010218 0.16482609 -4.95707565 -0.84375756 0 0 Z " fill="#FFFFFF" transform="translate(889,264)"/>
</svg>
